<mxfile host="app.diagrams.net" agent="Mozilla/5.0 (Windows NT 10.0; Win64; x64) AppleWebKit/537.36 (KHTML, like Gecko) Chrome/140.0.0.0 Safari/537.36" version="28.2.1">
  <diagram name="Page-1" id="9OlDV7g7q6zX6xP2v_GV">
    <mxGraphModel dx="1603" dy="865" grid="1" gridSize="10" guides="1" tooltips="1" connect="1" arrows="1" fold="1" page="1" pageScale="1" pageWidth="827" pageHeight="1169" math="0" shadow="0">
      <root>
        <mxCell id="0" />
        <mxCell id="1" parent="0" />
        <mxCell id="b9-1iKN8LsgXKqhFmD46-66" value="Start" style="rounded=1;whiteSpace=wrap;arcSize=50;strokeWidth=2;" vertex="1" parent="1">
          <mxGeometry x="232" y="40" width="60" height="39" as="geometry" />
        </mxCell>
        <mxCell id="b9-1iKN8LsgXKqhFmD46-67" value="Login Siswa" style="shape=parallelogram;perimeter=parallelogramPerimeter;fixedSize=1;strokeWidth=2;whiteSpace=wrap;" vertex="1" parent="1">
          <mxGeometry x="193.76" y="110" width="136" height="39" as="geometry" />
        </mxCell>
        <mxCell id="b9-1iKN8LsgXKqhFmD46-68" value="Dashboard" style="whiteSpace=wrap;strokeWidth=2;" vertex="1" parent="1">
          <mxGeometry x="208.25" y="194.5" width="107.5" height="30" as="geometry" />
        </mxCell>
        <mxCell id="b9-1iKN8LsgXKqhFmD46-69" value="Pilih Eco Learning Module" style="shape=parallelogram;perimeter=parallelogramPerimeter;fixedSize=1;strokeWidth=2;whiteSpace=wrap;" vertex="1" parent="1">
          <mxGeometry x="350" y="190" width="197" height="40" as="geometry" />
        </mxCell>
        <mxCell id="b9-1iKN8LsgXKqhFmD46-70" value="Pilih Modul untuk Dipelajari" style="shape=parallelogram;perimeter=parallelogramPerimeter;fixedSize=1;strokeWidth=2;whiteSpace=wrap;" vertex="1" parent="1">
          <mxGeometry x="581.5" y="191" width="196.5" height="39" as="geometry" />
        </mxCell>
        <mxCell id="b9-1iKN8LsgXKqhFmD46-71" value="Halaman Sub Modul" style="whiteSpace=wrap;strokeWidth=2;" vertex="1" parent="1">
          <mxGeometry x="605.25" y="260" width="149" height="40" as="geometry" />
        </mxCell>
        <mxCell id="b9-1iKN8LsgXKqhFmD46-72" value="Mulai Belajar dari Sub Modul 1" style="shape=parallelogram;perimeter=parallelogramPerimeter;fixedSize=1;strokeWidth=2;whiteSpace=wrap;" vertex="1" parent="1">
          <mxGeometry x="361.5" y="260" width="199" height="40" as="geometry" />
        </mxCell>
        <mxCell id="b9-1iKN8LsgXKqhFmD46-133" style="edgeStyle=orthogonalEdgeStyle;rounded=0;orthogonalLoop=1;jettySize=auto;html=1;entryX=0.5;entryY=0;entryDx=0;entryDy=0;" edge="1" parent="1" source="b9-1iKN8LsgXKqhFmD46-73" target="b9-1iKN8LsgXKqhFmD46-74">
          <mxGeometry relative="1" as="geometry">
            <Array as="points">
              <mxPoint x="258.5" y="310" />
              <mxPoint x="258.5" y="310" />
            </Array>
          </mxGeometry>
        </mxCell>
        <mxCell id="b9-1iKN8LsgXKqhFmD46-73" value="Halaman Isi Materi" style="whiteSpace=wrap;strokeWidth=2;" vertex="1" parent="1">
          <mxGeometry x="193.76" y="260" width="127" height="40" as="geometry" />
        </mxCell>
        <mxCell id="b9-1iKN8LsgXKqhFmD46-115" style="edgeStyle=orthogonalEdgeStyle;rounded=0;orthogonalLoop=1;jettySize=auto;html=1;entryX=0;entryY=0.5;entryDx=0;entryDy=0;exitX=0;exitY=0.5;exitDx=0;exitDy=0;" edge="1" parent="1" source="b9-1iKN8LsgXKqhFmD46-74" target="b9-1iKN8LsgXKqhFmD46-73">
          <mxGeometry relative="1" as="geometry">
            <Array as="points">
              <mxPoint x="151.5" y="370" />
              <mxPoint x="151.5" y="280" />
            </Array>
          </mxGeometry>
        </mxCell>
        <mxCell id="b9-1iKN8LsgXKqhFmD46-116" value="Belum" style="edgeLabel;html=1;align=center;verticalAlign=middle;resizable=0;points=[];" vertex="1" connectable="0" parent="b9-1iKN8LsgXKqhFmD46-115">
          <mxGeometry x="-0.1284" y="1" relative="1" as="geometry">
            <mxPoint as="offset" />
          </mxGeometry>
        </mxCell>
        <mxCell id="b9-1iKN8LsgXKqhFmD46-136" style="edgeStyle=orthogonalEdgeStyle;rounded=0;orthogonalLoop=1;jettySize=auto;html=1;entryX=0;entryY=0.5;entryDx=0;entryDy=0;" edge="1" parent="1" source="b9-1iKN8LsgXKqhFmD46-74" target="b9-1iKN8LsgXKqhFmD46-75">
          <mxGeometry relative="1" as="geometry" />
        </mxCell>
        <mxCell id="b9-1iKN8LsgXKqhFmD46-137" value="Ya" style="edgeLabel;html=1;align=center;verticalAlign=middle;resizable=0;points=[];" vertex="1" connectable="0" parent="b9-1iKN8LsgXKqhFmD46-136">
          <mxGeometry x="-0.1777" y="1" relative="1" as="geometry">
            <mxPoint y="2" as="offset" />
          </mxGeometry>
        </mxCell>
        <mxCell id="b9-1iKN8LsgXKqhFmD46-74" value="Akhir Modul?" style="rhombus;strokeWidth=2;whiteSpace=wrap;" vertex="1" parent="1">
          <mxGeometry x="208.25" y="330" width="100.5" height="80" as="geometry" />
        </mxCell>
        <mxCell id="b9-1iKN8LsgXKqhFmD46-75" value="Klik Button Kerjakan Kuis" style="shape=parallelogram;perimeter=parallelogramPerimeter;fixedSize=1;strokeWidth=2;whiteSpace=wrap;" vertex="1" parent="1">
          <mxGeometry x="354.5" y="350" width="167.5" height="40" as="geometry" />
        </mxCell>
        <mxCell id="b9-1iKN8LsgXKqhFmD46-76" value="Halaman Preview Kuis" style="whiteSpace=wrap;strokeWidth=2;" vertex="1" parent="1">
          <mxGeometry x="581.5" y="350" width="128.5" height="40" as="geometry" />
        </mxCell>
        <mxCell id="b9-1iKN8LsgXKqhFmD46-77" value="Klik Start Kuis" style="shape=parallelogram;perimeter=parallelogramPerimeter;fixedSize=1;strokeWidth=2;whiteSpace=wrap;" vertex="1" parent="1">
          <mxGeometry x="568.75" y="430" width="154" height="39" as="geometry" />
        </mxCell>
        <mxCell id="b9-1iKN8LsgXKqhFmD46-118" style="edgeStyle=orthogonalEdgeStyle;rounded=0;orthogonalLoop=1;jettySize=auto;html=1;entryX=1;entryY=0.5;entryDx=0;entryDy=0;" edge="1" parent="1" source="b9-1iKN8LsgXKqhFmD46-78" target="b9-1iKN8LsgXKqhFmD46-79">
          <mxGeometry relative="1" as="geometry" />
        </mxCell>
        <mxCell id="b9-1iKN8LsgXKqhFmD46-78" value="Halaman Pengerjaan Kuis" style="whiteSpace=wrap;strokeWidth=2;" vertex="1" parent="1">
          <mxGeometry x="362.25" y="430" width="159.75" height="40" as="geometry" />
        </mxCell>
        <mxCell id="b9-1iKN8LsgXKqhFmD46-121" style="edgeStyle=orthogonalEdgeStyle;rounded=0;orthogonalLoop=1;jettySize=auto;html=1;entryX=0.5;entryY=0;entryDx=0;entryDy=0;" edge="1" parent="1" source="b9-1iKN8LsgXKqhFmD46-79" target="b9-1iKN8LsgXKqhFmD46-120">
          <mxGeometry relative="1" as="geometry" />
        </mxCell>
        <mxCell id="b9-1iKN8LsgXKqhFmD46-79" value="Jawab Semua Soal" style="shape=parallelogram;perimeter=parallelogramPerimeter;fixedSize=1;strokeWidth=2;whiteSpace=wrap;" vertex="1" parent="1">
          <mxGeometry x="145.76" y="431" width="185" height="39" as="geometry" />
        </mxCell>
        <mxCell id="b9-1iKN8LsgXKqhFmD46-81" value="Halaman Hasil Kuis" style="whiteSpace=wrap;strokeWidth=2;" vertex="1" parent="1">
          <mxGeometry x="170.75" y="625" width="137" height="40" as="geometry" />
        </mxCell>
        <mxCell id="b9-1iKN8LsgXKqhFmD46-141" style="edgeStyle=orthogonalEdgeStyle;rounded=0;orthogonalLoop=1;jettySize=auto;html=1;entryX=0;entryY=0.5;entryDx=0;entryDy=0;" edge="1" parent="1" source="b9-1iKN8LsgXKqhFmD46-82" target="b9-1iKN8LsgXKqhFmD46-84">
          <mxGeometry relative="1" as="geometry" />
        </mxCell>
        <mxCell id="b9-1iKN8LsgXKqhFmD46-142" value="&amp;nbsp;&amp;gt; 70&amp;nbsp;" style="edgeLabel;html=1;align=center;verticalAlign=middle;resizable=0;points=[];" vertex="1" connectable="0" parent="b9-1iKN8LsgXKqhFmD46-141">
          <mxGeometry x="-0.4221" relative="1" as="geometry">
            <mxPoint x="10" as="offset" />
          </mxGeometry>
        </mxCell>
        <mxCell id="b9-1iKN8LsgXKqhFmD46-143" style="edgeStyle=orthogonalEdgeStyle;rounded=0;orthogonalLoop=1;jettySize=auto;html=1;entryX=0.5;entryY=1;entryDx=0;entryDy=0;exitX=0.5;exitY=0;exitDx=0;exitDy=0;" edge="1" parent="1" source="b9-1iKN8LsgXKqhFmD46-82" target="b9-1iKN8LsgXKqhFmD46-83">
          <mxGeometry relative="1" as="geometry">
            <Array as="points">
              <mxPoint x="431" y="580" />
              <mxPoint x="587" y="580" />
            </Array>
          </mxGeometry>
        </mxCell>
        <mxCell id="b9-1iKN8LsgXKqhFmD46-144" value="&amp;nbsp;&amp;lt; 70&amp;nbsp;" style="edgeLabel;html=1;align=center;verticalAlign=middle;resizable=0;points=[];" vertex="1" connectable="0" parent="b9-1iKN8LsgXKqhFmD46-143">
          <mxGeometry x="-0.1055" relative="1" as="geometry">
            <mxPoint as="offset" />
          </mxGeometry>
        </mxCell>
        <mxCell id="b9-1iKN8LsgXKqhFmD46-82" value="Nilai &gt;= 70?" style="rhombus;strokeWidth=2;whiteSpace=wrap;" vertex="1" parent="1">
          <mxGeometry x="387.13" y="600" width="87.24" height="90" as="geometry" />
        </mxCell>
        <mxCell id="b9-1iKN8LsgXKqhFmD46-83" value="Klik Kerjakan Ulang" style="shape=parallelogram;perimeter=parallelogramPerimeter;fixedSize=1;strokeWidth=2;whiteSpace=wrap;" vertex="1" parent="1">
          <mxGeometry x="511.5" y="510" width="151.75" height="39" as="geometry" />
        </mxCell>
        <mxCell id="b9-1iKN8LsgXKqhFmD46-84" value="Klik Cetak Sertifikat" style="shape=parallelogram;perimeter=parallelogramPerimeter;fixedSize=1;strokeWidth=2;whiteSpace=wrap;" vertex="1" parent="1">
          <mxGeometry x="581.5" y="625" width="138.24" height="39" as="geometry" />
        </mxCell>
        <mxCell id="b9-1iKN8LsgXKqhFmD46-85" value="Halaman Generate Certificate" style="whiteSpace=wrap;strokeWidth=2;" vertex="1" parent="1">
          <mxGeometry x="566.31" y="719.5" width="168.62" height="40" as="geometry" />
        </mxCell>
        <mxCell id="b9-1iKN8LsgXKqhFmD46-86" value="Klik Generate Certificate" style="shape=parallelogram;perimeter=parallelogramPerimeter;fixedSize=1;strokeWidth=2;whiteSpace=wrap;" vertex="1" parent="1">
          <mxGeometry x="354.5" y="719.5" width="165.62" height="39" as="geometry" />
        </mxCell>
        <mxCell id="b9-1iKN8LsgXKqhFmD46-87" value="Certificate Generated - Success" style="whiteSpace=wrap;strokeWidth=2;" vertex="1" parent="1">
          <mxGeometry x="170.75000000000003" y="719.5" width="140.5" height="40" as="geometry" />
        </mxCell>
        <mxCell id="b9-1iKN8LsgXKqhFmD46-88" value="End" style="rounded=1;whiteSpace=wrap;arcSize=50;strokeWidth=2;" vertex="1" parent="1">
          <mxGeometry x="215.5" y="790" width="51" height="39" as="geometry" />
        </mxCell>
        <mxCell id="b9-1iKN8LsgXKqhFmD46-89" value="" style="curved=1;startArrow=none;endArrow=block;exitX=0.5;exitY=1;entryX=0.5;entryY=0;rounded=0;" edge="1" parent="1" source="b9-1iKN8LsgXKqhFmD46-66" target="b9-1iKN8LsgXKqhFmD46-67">
          <mxGeometry relative="1" as="geometry">
            <Array as="points" />
          </mxGeometry>
        </mxCell>
        <mxCell id="b9-1iKN8LsgXKqhFmD46-90" value="" style="curved=1;startArrow=none;endArrow=block;exitX=0.5;exitY=1;entryX=0.5;entryY=0;rounded=0;exitDx=0;exitDy=0;entryDx=0;entryDy=0;" edge="1" parent="1" source="b9-1iKN8LsgXKqhFmD46-67" target="b9-1iKN8LsgXKqhFmD46-68">
          <mxGeometry relative="1" as="geometry">
            <Array as="points" />
          </mxGeometry>
        </mxCell>
        <mxCell id="b9-1iKN8LsgXKqhFmD46-91" value="" style="curved=1;startArrow=none;endArrow=block;exitX=1;exitY=0.5;entryX=0;entryY=0.5;rounded=0;exitDx=0;exitDy=0;entryDx=0;entryDy=0;" edge="1" parent="1" source="b9-1iKN8LsgXKqhFmD46-68" target="b9-1iKN8LsgXKqhFmD46-69">
          <mxGeometry relative="1" as="geometry">
            <Array as="points" />
          </mxGeometry>
        </mxCell>
        <mxCell id="b9-1iKN8LsgXKqhFmD46-92" value="" style="curved=1;startArrow=none;endArrow=block;exitX=1;exitY=0.5;entryX=0;entryY=0.5;rounded=0;exitDx=0;exitDy=0;entryDx=0;entryDy=0;" edge="1" parent="1" source="b9-1iKN8LsgXKqhFmD46-69" target="b9-1iKN8LsgXKqhFmD46-70">
          <mxGeometry relative="1" as="geometry">
            <Array as="points" />
          </mxGeometry>
        </mxCell>
        <mxCell id="b9-1iKN8LsgXKqhFmD46-93" value="" style="curved=1;startArrow=none;endArrow=block;exitX=0.5;exitY=1;entryX=0.5;entryY=0;rounded=0;" edge="1" parent="1" source="b9-1iKN8LsgXKqhFmD46-70" target="b9-1iKN8LsgXKqhFmD46-71">
          <mxGeometry relative="1" as="geometry">
            <Array as="points" />
          </mxGeometry>
        </mxCell>
        <mxCell id="b9-1iKN8LsgXKqhFmD46-94" value="" style="curved=1;startArrow=none;endArrow=block;exitX=0;exitY=0.5;entryX=1;entryY=0.5;rounded=0;entryDx=0;entryDy=0;exitDx=0;exitDy=0;" edge="1" parent="1" source="b9-1iKN8LsgXKqhFmD46-71" target="b9-1iKN8LsgXKqhFmD46-72">
          <mxGeometry relative="1" as="geometry">
            <Array as="points" />
          </mxGeometry>
        </mxCell>
        <mxCell id="b9-1iKN8LsgXKqhFmD46-95" value="" style="curved=1;startArrow=none;endArrow=block;exitX=0;exitY=0.5;entryX=1;entryY=0.5;rounded=0;exitDx=0;exitDy=0;entryDx=0;entryDy=0;" edge="1" parent="1" source="b9-1iKN8LsgXKqhFmD46-72" target="b9-1iKN8LsgXKqhFmD46-73">
          <mxGeometry relative="1" as="geometry">
            <Array as="points" />
          </mxGeometry>
        </mxCell>
        <mxCell id="b9-1iKN8LsgXKqhFmD46-99" value="" style="curved=1;startArrow=none;endArrow=block;exitX=1;exitY=0.5;entryX=0;entryY=0.5;rounded=0;exitDx=0;exitDy=0;entryDx=0;entryDy=0;" edge="1" parent="1" source="b9-1iKN8LsgXKqhFmD46-75" target="b9-1iKN8LsgXKqhFmD46-76">
          <mxGeometry relative="1" as="geometry">
            <Array as="points" />
          </mxGeometry>
        </mxCell>
        <mxCell id="b9-1iKN8LsgXKqhFmD46-100" value="" style="curved=1;startArrow=none;endArrow=block;exitX=0.5;exitY=1.01;rounded=0;entryX=0.5;entryY=0;entryDx=0;entryDy=0;" edge="1" parent="1" source="b9-1iKN8LsgXKqhFmD46-76" target="b9-1iKN8LsgXKqhFmD46-77">
          <mxGeometry relative="1" as="geometry">
            <Array as="points" />
            <mxPoint x="261.5" y="1310" as="targetPoint" />
          </mxGeometry>
        </mxCell>
        <mxCell id="b9-1iKN8LsgXKqhFmD46-101" value="" style="curved=1;startArrow=none;endArrow=block;exitX=0;exitY=0.5;entryX=1;entryY=0.5;rounded=0;exitDx=0;exitDy=0;entryDx=0;entryDy=0;" edge="1" parent="1" source="b9-1iKN8LsgXKqhFmD46-77" target="b9-1iKN8LsgXKqhFmD46-78">
          <mxGeometry relative="1" as="geometry">
            <Array as="points" />
          </mxGeometry>
        </mxCell>
        <mxCell id="b9-1iKN8LsgXKqhFmD46-105" value="" style="curved=1;startArrow=none;endArrow=block;exitX=1;exitY=0.5;entryX=0;entryY=0.5;rounded=0;exitDx=0;exitDy=0;entryDx=0;entryDy=0;" edge="1" parent="1" source="b9-1iKN8LsgXKqhFmD46-81" target="b9-1iKN8LsgXKqhFmD46-82">
          <mxGeometry relative="1" as="geometry">
            <Array as="points" />
          </mxGeometry>
        </mxCell>
        <mxCell id="b9-1iKN8LsgXKqhFmD46-109" value="" style="curved=1;startArrow=none;endArrow=block;exitX=0.5;exitY=1.01;entryX=0.5;entryY=0.01;rounded=0;" edge="1" parent="1" source="b9-1iKN8LsgXKqhFmD46-84" target="b9-1iKN8LsgXKqhFmD46-85">
          <mxGeometry relative="1" as="geometry">
            <Array as="points" />
          </mxGeometry>
        </mxCell>
        <mxCell id="b9-1iKN8LsgXKqhFmD46-110" value="" style="curved=1;startArrow=none;endArrow=block;exitX=0;exitY=0.5;entryX=1;entryY=0.5;rounded=0;entryDx=0;entryDy=0;exitDx=0;exitDy=0;" edge="1" parent="1" source="b9-1iKN8LsgXKqhFmD46-85" target="b9-1iKN8LsgXKqhFmD46-86">
          <mxGeometry relative="1" as="geometry">
            <Array as="points" />
          </mxGeometry>
        </mxCell>
        <mxCell id="b9-1iKN8LsgXKqhFmD46-111" value="" style="curved=1;startArrow=none;endArrow=block;exitX=0;exitY=0.5;entryX=1;entryY=0.5;rounded=0;exitDx=0;exitDy=0;entryDx=0;entryDy=0;" edge="1" parent="1" source="b9-1iKN8LsgXKqhFmD46-86" target="b9-1iKN8LsgXKqhFmD46-87">
          <mxGeometry relative="1" as="geometry">
            <Array as="points" />
          </mxGeometry>
        </mxCell>
        <mxCell id="b9-1iKN8LsgXKqhFmD46-112" value="" style="curved=1;startArrow=none;endArrow=block;exitX=0.5;exitY=1.01;entryX=0.5;entryY=0.01;rounded=0;" edge="1" parent="1" source="b9-1iKN8LsgXKqhFmD46-87" target="b9-1iKN8LsgXKqhFmD46-88">
          <mxGeometry relative="1" as="geometry">
            <Array as="points" />
          </mxGeometry>
        </mxCell>
        <mxCell id="b9-1iKN8LsgXKqhFmD46-138" style="edgeStyle=orthogonalEdgeStyle;rounded=0;orthogonalLoop=1;jettySize=auto;html=1;entryX=0.5;entryY=1;entryDx=0;entryDy=0;" edge="1" parent="1" source="b9-1iKN8LsgXKqhFmD46-120" target="b9-1iKN8LsgXKqhFmD46-78">
          <mxGeometry relative="1" as="geometry" />
        </mxCell>
        <mxCell id="b9-1iKN8LsgXKqhFmD46-139" style="edgeStyle=orthogonalEdgeStyle;rounded=0;orthogonalLoop=1;jettySize=auto;html=1;entryX=0.5;entryY=0;entryDx=0;entryDy=0;" edge="1" parent="1" source="b9-1iKN8LsgXKqhFmD46-120" target="b9-1iKN8LsgXKqhFmD46-81">
          <mxGeometry relative="1" as="geometry" />
        </mxCell>
        <mxCell id="b9-1iKN8LsgXKqhFmD46-120" value="Klik Submit" style="rhombus;whiteSpace=wrap;html=1;strokeWidth=2;" vertex="1" parent="1">
          <mxGeometry x="198.26" y="510" width="80" height="80" as="geometry" />
        </mxCell>
        <mxCell id="b9-1iKN8LsgXKqhFmD46-140" style="edgeStyle=orthogonalEdgeStyle;rounded=0;orthogonalLoop=1;jettySize=auto;html=1;entryX=0.645;entryY=0.946;entryDx=0;entryDy=0;entryPerimeter=0;" edge="1" parent="1" source="b9-1iKN8LsgXKqhFmD46-83" target="b9-1iKN8LsgXKqhFmD46-78">
          <mxGeometry relative="1" as="geometry" />
        </mxCell>
      </root>
    </mxGraphModel>
  </diagram>
</mxfile>
